<?xml version="1.0" encoding="utf-8"?>
<!-- Generator: Adobe Illustrator 27.5.0, SVG Export Plug-In . SVG Version: 6.00 Build 0)  -->
<svg version="1.1" xmlns="http://www.w3.org/2000/svg" xmlns:xlink="http://www.w3.org/1999/xlink" x="0px" y="0px"
	 viewBox="0 0 500 500" style="enable-background:new 0 0 500 500;" xml:space="preserve">
<g id="Floor">
	<path id="Floor_10_" style="fill:#F5F5F5;" d="M99.568,429.522c82.556,43.128,216.407,43.129,298.962,0.001
		c82.557-43.129,82.557-113.053,0-156.182c-82.556-43.128-216.407-43.128-298.964-0.001C17.01,316.469,17.01,386.394,99.568,429.522
		z"/>
</g>
<g id="Shadows">
	<ellipse id="Shadow_2_" style="fill:#E0E0E0;" cx="257.173" cy="297.721" rx="63.41" ry="36.61"/>
	<ellipse id="Shadow_3_" style="fill:#E0E0E0;" cx="376.173" cy="382.721" rx="31.827" ry="18.375"/>
	<ellipse id="Shadow_1_" style="fill:#E0E0E0;" cx="175.932" cy="325.625" rx="63.41" ry="36.61"/>
</g>
<g id="Characters">
	<g id="XMLID_17760_">
		<g id="XMLID_16159_">
			<path id="XMLID_16158_" style="fill:#27DEBF;" d="M154.909,148.134c-2.466,0-4.681,2.219-4.681,8.613
				c0,6.394-0.503,11.524,3.418,11.524L154.909,148.134z"/>
			<path id="XMLID_16045_" style="opacity:0.1;" d="M154.909,148.134c-2.466,0-4.681,2.219-4.681,8.613
				c0,6.394-0.503,11.524,3.418,11.524L154.909,148.134z"/>
			<path id="XMLID_16109_" style="fill:#27DEBF;" d="M161.436,195.522l20.927-1.44c4.302-0.759,7.79-4.861,7.79-9.163v-37.353
				c0-4.302-2.583-6.551-7.79-6.416l-20.927,1.44c-4.302,0.759-7.79,4.861-7.79,9.163v37.353
				C153.646,193.408,157.134,196.281,161.436,195.522z"/>
		</g>
		<path id="XMLID_19174_" style="fill:#B16668;" d="M208.495,180.181c2.218,5.28,9.196,13.274,10.91,15.225
			c1.275,1.451,4.33,4.241,5.319,5.897c1.519,2.542,8.66,8.601,6.635,10.731c-3.628,3.817-8.689-0.046-10.625-1.576
			c-2.65-2.093-5.72-5.09-8.106-7.48c-4.697-4.708-9.233-10.589-11.988-14.546c-1.508-2.165-9.861-22.844-10.078-27.884
			c-0.082-1.913-0.374-14.095,2.092-14.959c4.928,0.343,7.016,2.369,7.986,4.968c0.963,2.579,1.458,5.813,2.157,8.476
			C204.279,164.678,207.703,178.296,208.495,180.181z"/>
		<g id="XMLID_16377_">
			<path id="XMLID_17800_" style="fill:#263238;" d="M138.289,296.523c-1.533-0.789-2.507,1.158-3.897,2.719
				c-0.975,1.095-2.495,2.829-2.72,4.077c-0.333,1.847,1.332,4.755,3.176,6.359c1.844,1.603,3.984,2.751,4.654,6.266
				s2.035,5.604,5.678,7.175c3.992,1.722,9.339,1.171,11.153,0c2.149-1.387,0.187-2.911-2.824-7.22
				c-3.929-5.622-6.988-9.638-6.989-14.883L138.289,296.523z"/>
			<path id="XMLID_17799_" style="fill:#B16668;" d="M141.43,291.918l-3.226,4.729c-1.398,2.049-0.963,4.905,1.089,6.299
				c0.033,0.022,0.066,0.045,0.1,0.066c1.963,1.273,4.595,0.766,6.176-0.959l5.035-5.495L141.43,291.918z"/>
		</g>
		<g id="XMLID_16376_">
			
				<rect id="XMLID_17793_" x="190.945" y="315.365" transform="matrix(-0.9751 0.2217 -0.2217 -0.9751 456.4552 591.4163)" style="fill:#B16668;" width="8.185" height="11.919"/>
			<path id="XMLID_17790_" style="fill:#263238;" d="M199.453,322.289l-0.259-1.141c0.839,0.159,4.421,6.108,7.976,8.694
				c3.892,2.83,7.271,4.504,9.01,5.78c2.326,1.707-1.041,5.202-6.767,5.514c-2.842,0.154-8.017-0.71-9.612-2.223
				c-1.594-1.513-2.749-4.018-4.012-5.106c-1.263-1.088-3.822-2.041-4.689-3.435c-0.476-0.766-0.549-2.663-0.496-4.293
				c0.049-1.495,0.098-3.138,0.61-3.115c0.04,0.172,0.198,0.87,0.198,0.87c0.726,0.51,3.001,1.157,4.854,1.071
				C197.612,324.84,200.12,324.526,199.453,322.289z"/>
		</g>
		<g id="XMLID_16375_">
			<path id="XMLID_17794_" style="fill:#27DEBF;" d="M199.434,199.253c0.204,6.025,1.266,30.908-3.13,42.44
				c-4.117,10.796-7.841,16.571-9.151,18.814c-1.311,2.242-39.06,38.993-39.06,38.993s-6.405-0.469-7.424-6.681
				c0,0,15.468-26.294,18.816-31.687c3.348-5.393,15.213-13.662,15.213-13.662l-1.079-53.459L199.434,199.253z"/>
			<path id="XMLID_12_" style="opacity:0.3;" d="M199.434,199.253c0.204,6.025,1.266,30.908-3.13,42.44
				c-4.117,10.796-7.841,16.571-9.151,18.814c-1.311,2.242-39.06,38.993-39.06,38.993s-6.405-0.469-7.424-6.681
				c0,0,15.468-26.294,18.816-31.687c3.348-5.393,15.213-13.662,15.213-13.662l-1.079-53.459L199.434,199.253z"/>
			<path id="XMLID_17792_" style="fill:#27DEBF;" d="M186.13,217.651c0,0,3.103-2.611,7.296-8.404
				c6.101-8.429,5.162-15.914,5.162-15.914h-2.498l-33.01,0.676c-3.273,5.363-3.985,13.498-2.88,21.42
				c2.294,16.444,15.916,47.813,15.916,47.813c-0.191,2.249-1.142,11.702,1.004,20.082c3.385,13.221,12.607,35.595,12.607,35.595
				s5.778,0.824,8.648-2.519c0,0-5.107-45.424-6.483-57.063C190.403,246.744,186.13,217.651,186.13,217.651z"/>
			<path id="XMLID_1_" style="opacity:0.3;" d="M186.13,217.651c0,0,3.103-2.611,7.296-8.404c6.101-8.429,5.162-15.914,5.162-15.914
				h-2.498l-33.01,0.676c-3.273,5.363-3.985,13.498-2.88,21.42c2.294,16.444,15.916,47.813,15.916,47.813
				c-0.191,2.249-1.142,11.702,1.004,20.082c3.385,13.221,12.607,35.595,12.607,35.595s5.778,0.824,8.648-2.519
				c0,0-5.107-45.424-6.483-57.063C190.403,246.744,186.13,217.651,186.13,217.651z"/>
			<path id="XMLID_17789_" style="opacity:0.3;" d="M190.883,251.629c0,0-3.847-30.237-4.754-33.978c0,0,6.782-2.583,8.866-4.952
				c0,0-1.488,3.313-6.339,6.258L190.883,251.629z"/>
			<path id="XMLID_15778_" style="opacity:0.3;" d="M174.577,263.975c-1.062,3.944-0.96,10.45-0.96,10.45l2.145-1.87
				c-0.058-1.565,0.353-9.312,0.353-9.312c-1.647-2.249-5.269-12.935-5.269-12.935L174.577,263.975z"/>
		</g>
		<g id="XMLID_16374_">
			<g id="XMLID_17785_">
				<path id="XMLID_17786_" style="fill:#37474F;" d="M197.582,174.79c0.516,4.781,1.851,24.463,1.851,24.463
					c-15.792,8.427-35.378,2.844-38.376-0.63c2.716-8.937,6.633-12.713,8.867-15.092l-5.117-14.275c0,0-0.61-1.46-0.598-1.473
					c0.341-0.585,7.481-8.631,0.704-21.411l9.213-0.842l13.493-0.39c2.941,0.165,5.035,0.448,5.035,0.448
					c1.884,1.762,4.854,6.607,6.779,11.535C200.675,160.301,202.017,165.377,197.582,174.79z"/>
			</g>
			<g id="XMLID_17766_">
				<polygon id="XMLID_17769_" style="fill:#263238;" points="166.872,175.014 175.755,186.414 169.928,183.532 				"/>
			</g>
		</g>
		<path id="XMLID_16048_" style="fill:#B16668;" d="M148.455,212.141c0.349,3.427,0.743,8.054,1.425,10.686
			c2.367,9.134,5.402,11.87,9.445,12.14c6.452,0.431,6.494-1.984,3.597-6.141c-2.138-3.067-2.879-5.939-2.879-5.939
			c1.27,0.953,2.29,1.682,3.099,1.998c1.608,0.627,2.637-0.232,2.908-0.789c0.211-0.434-0.907-0.87-2.143-2.378
			c-1.579-1.926-2.387-3.458-4.557-5.055c-0.809-0.595-1.061-1.691-1.307-2.665c-0.328-1.299-0.553-22.009,0.616-26.298
			l5.551-19.917c4.514-3.1,7.568-18.151,0.704-21.411c-8.704,0.947-9.384,8.872-16.408,34.889
			C147.262,185.867,147.733,205.056,148.455,212.141z"/>
		<g id="XMLID_16371_">
			<path id="XMLID_16160_" style="fill:#27DEBF;" d="M168.67,146.029c0,0,2.186,1.193,2.644,7.529
				c0.586,8.127-3.286,17.866-7.495,21.456v7.159c0,0,8.144-6.771,10.889-15.281c2.745-8.51,2.957-16.824-0.58-21.36
				C174.126,145.531,171.048,144.753,168.67,146.029z"/>
			<path id="XMLID_16353_" style="opacity:0.2;" d="M168.67,146.029c0,0,2.186,1.193,2.644,7.529
				c0.586,8.127-3.286,17.866-7.495,21.456v7.159c0,0,8.144-6.771,10.889-15.281c2.745-8.51,2.957-16.824-0.58-21.36
				C174.126,145.531,171.048,144.753,168.67,146.029z"/>
		</g>
		<g id="XMLID_16370_">
			<path id="XMLID_16363_" style="fill:#27DEBF;" d="M187.57,145.102c0,0,7.572,2.773,10.527,8.947c0,0,0.273-4.913-3.523-7.676
				C190.776,143.61,187.57,145.102,187.57,145.102z"/>
			<path id="XMLID_16365_" style="opacity:0.2;" d="M187.57,145.102c0,0,7.572,2.773,10.527,8.947c0,0,0.273-4.913-3.523-7.676
				C190.776,143.61,187.57,145.102,187.57,145.102z"/>
		</g>
		<g id="XMLID_16373_">
			<path id="XMLID_17802_" style="fill:#263238;" d="M202.017,143.61h-16.738c-12.215,0-22.118-9.902-22.118-22.118l0,0
				c0-10.73,8.698-19.428,19.428-19.428l0,0c10.73,0,19.428,8.698,19.428,19.428V143.61z"/>
			<g id="XMLID_17783_">
				<path id="XMLID_17784_" style="fill:#B16668;" d="M195.078,110.526c2.052,1.213,4.588,6.374,4.338,17.194
					c-0.212,9.17-3.184,11.436-4.677,12.089c-1.492,0.653-4.371,0.256-7.169-0.211v5.504c0,0,3.868,4.492,3.624,7.016
					c-0.243,2.524-5.585,3.12-9.204,0.655c-3.619-2.465-6.668-7.271-6.668-7.271l0.063-12.655c0,0-1.647,1.6-4.44-0.842
					c-2.305-2.016-3.082-5.415-1.286-7.238c1.797-1.824,5.117-1.327,6.39,1.273c0,0,4.463,0.163,10.406-3.102
					C192.4,119.673,194.683,114.081,195.078,110.526z"/>
			</g>
			<g id="XMLID_17781_">
				<path id="XMLID_17782_" style="fill:#263238;" d="M189.178,125.416c0.034,0.661-0.455,1.221-1.091,1.251
					c-0.636,0.03-1.179-0.481-1.212-1.142c-0.033-0.661,0.456-1.221,1.092-1.251S189.145,124.756,189.178,125.416z"/>
			</g>
			<g id="XMLID_17779_" style="opacity:0.5;">
				<path id="XMLID_17780_" style="fill:#9A4A4D;" d="M189.486,133.19l2.678,0.855c-0.222,0.766-1.002,1.197-1.742,0.961
					C189.682,134.769,189.263,133.956,189.486,133.19z"/>
			</g>
			<g id="XMLID_17777_">
				<path id="XMLID_17778_" style="fill:#263238;" d="M198.633,121.875l-2.333-1.617c0.426-0.666,1.293-0.844,1.938-0.397
					C198.881,120.307,199.059,121.209,198.633,121.875z"/>
			</g>
			<g id="XMLID_17775_">
				<path id="XMLID_17776_" style="fill:#263238;" d="M198.095,124.582c0.033,0.661-0.455,1.221-1.092,1.251
					c-0.636,0.03-1.179-0.481-1.212-1.142c-0.034-0.661,0.455-1.221,1.091-1.251C197.519,123.41,198.062,123.922,198.095,124.582z"
					/>
			</g>
			<g id="XMLID_17773_" style="opacity:0.5;">
				<polygon id="XMLID_17774_" style="fill:#9A4A4D;" points="192.655,123.922 192.838,130.864 196.492,129.732 				"/>
			</g>
			<g id="XMLID_17771_" style="opacity:0.5;">
				<path id="XMLID_17772_" style="fill:#9A4A4D;" d="M187.57,139.598c-2.949-0.387-9.016-2.13-9.962-4.529
					c0,0,0.315,1.508,2.127,3.061c1.813,1.553,7.835,3.304,7.835,3.304V139.598z"/>
			</g>
			<path id="XMLID_17763_" style="fill:#263238;" d="M166.246,111.823l-4.505-2.418c0.639-1.291,2.166-1.796,3.41-1.128
				C166.395,108.945,166.886,110.532,166.246,111.823z"/>
		</g>
	</g>
	<g id="XMLID_16407_">
		<path id="XMLID_16047_" style="fill:#455A64;" d="M234.741,123.922c-2.929,0-5.562,2.637-5.562,10.233
			c0,7.596-0.598,13.692,4.061,13.692L234.741,123.922z"/>
		<path id="XMLID_16046_" style="fill:#37474F;" d="M242.495,180.222l24.862-3.566c5.111-0.901,9.255-5.775,9.255-10.887v-44.377
			c0-5.111-4.143-8.524-9.255-7.623l-24.862,3.566c-5.111,0.901-9.255,5.775-9.255,10.887v44.377
			C233.241,177.71,237.384,181.123,242.495,180.222z"/>
	</g>
	<g id="XMLID_16424_">
		<g id="XMLID_16416_">
			<path id="XMLID_19139_" style="fill:#263238;" d="M221.021,277.693c-1.533-0.789-2.507,1.158-3.897,2.719
				c-0.975,1.095-2.495,2.829-2.72,4.077c-0.333,1.847,1.332,4.755,3.176,6.359c1.844,1.603,3.984,2.751,4.654,6.266
				c0.67,3.515,2.036,5.604,5.679,7.175c3.992,1.722,9.339,1.171,11.153,0c2.149-1.387,0.187-2.911-2.824-7.22
				c-3.929-5.622-6.988-9.638-6.989-14.883L221.021,277.693z"/>
			<path id="XMLID_19138_" style="fill:#F28F8F;" d="M224.162,273.088l-3.226,4.729c-1.398,2.049-0.963,4.905,1.089,6.299
				c0.033,0.022,0.066,0.045,0.1,0.066c1.963,1.273,4.595,0.766,6.176-0.959l5.035-5.495L224.162,273.088z"/>
		</g>
		<g id="XMLID_16414_">
			
				<rect id="XMLID_19136_" x="273.677" y="296.534" transform="matrix(-0.9751 0.2217 -0.2217 -0.9751 615.6852 535.8834)" style="fill:#F28F8F;" width="8.185" height="11.919"/>
			<path id="XMLID_19133_" style="fill:#263238;" d="M282.185,303.458l-0.259-1.141c0.839,0.159,4.421,6.108,7.976,8.694
				c3.892,2.83,7.271,4.504,9.01,5.78c2.326,1.707-1.041,5.202-6.767,5.514c-2.842,0.154-8.017-0.71-9.612-2.223
				c-1.595-1.513-2.749-4.018-4.013-5.106c-1.263-1.088-3.822-2.041-4.689-3.435c-0.476-0.766-0.549-2.663-0.496-4.293
				c0.049-1.495,0.098-3.138,0.61-3.116c0.04,0.172,0.198,0.87,0.198,0.87c0.726,0.51,3.001,1.157,4.854,1.071
				C280.344,306.009,282.851,305.696,282.185,303.458z"/>
		</g>
		<g id="XMLID_16413_">
			<path id="XMLID_19137_" style="fill:#37474F;" d="M285.837,176.412c0.204,6.025-2.405,34.918-6.802,46.45
				c-4.117,10.796-7.841,16.571-9.151,18.814c-1.311,2.242-39.06,38.993-39.06,38.993s-7.424,0.673-7.424-6.681
				c0,0,15.604-25.399,18.953-30.792c3.348-5.393,13.211-16.28,13.211-16.28l1.787-50.955L285.837,176.412z"/>
			<path id="XMLID_19134_" style="fill:#37474F;" d="M269.862,199.601c0,0,3.103-2.611,7.296-8.404
				c6.101-8.429,6.091-15.617,6.091-15.617l-3.428-0.297l-36.179,2.389c0,6.141-0.406,11.739,0.29,19.708
				c1.427,16.344,12.634,47.547,12.634,47.547c-0.191,2.249,1.139,11.188,3.284,19.568c3.384,13.221,12.607,35.595,12.607,35.595
				s5.778,0.824,8.648-2.519c0,0-5.107-45.424-6.483-57.063C273.134,227.914,269.862,199.601,269.862,199.601z"/>
			<path id="XMLID_19132_" style="fill:#263238;" d="M273.615,232.799c0,0-2.846-29.456-3.753-33.197c0,0,6.782-2.583,8.866-4.952
				c0,0-1.488,3.313-6.34,6.258L273.615,232.799z"/>
			<path id="XMLID_15772_" style="fill:#263238;" d="M251.937,231.022l4.629,13.905c0,0,0.344,5.501,1.086,9.371l-1.996,1.984
				c0,0-1.06-6.389-0.442-11.022L251.937,231.022z"/>
		</g>
	</g>
	<path id="XMLID_17757_" style="fill:#FFA8A7;" d="M283.1,164.88c-6.969-17.332-7.272-32.514-8.697-37.043l15.448,17.911
		c0,0,2.001,10.955,4.508,18.541c2.202,6.666,5.132,14.959,8.2,20.002c0.543,0.894,1.417,1.534,2.417,1.84
		c2.683,0.821,4.004,2.048,6.22,3.395c1.735,1.055,2.983,1.099,2.926,1.598c-0.073,0.641-0.789,1.839-2.584,1.778
		c-0.903-0.031-2.157-0.395-3.734-0.894c0,0,1.718,2.565,4.876,4.842c4.28,3.085,5.071,5.473-1.417,7.274
		c-4.065,1.129-7.991-0.513-13.465-8.671c-1.577-2.35-4.055-6.063-5.568-9.316C288.29,177.667,285.207,170.12,283.1,164.88z"/>
	<g id="XMLID_16409_">
		<path id="XMLID_19173_" style="fill:#27DEBF;" d="M271.996,117.434c6.449,0.066,12.796,1.513,14.981,8.38
			c2.133,6.703,4.885,26.149,4.885,26.149s-2.715,3.596-11.756,3.008L271.996,117.434z"/>
		<path id="XMLID_16044_" style="opacity:0.1;" d="M271.996,117.434c6.449,0.066,12.796,1.513,14.981,8.38
			c2.133,6.703,4.885,26.149,4.885,26.149s-2.715,3.596-11.756,3.008L271.996,117.434z"/>
	</g>
	<path id="XMLID_15781_" style="fill:#27DEBF;" d="M285.954,132.732c0-6.679-3.711-14.703-13.958-15.299l-13.241,0.388
		c-3.273,0.788-6.91,1.471-10.331,2.599l-2.499,28.308l-2.573,31.763c6.013,6.542,29.691,7.645,42.821-1.944
		C286.173,178.548,285.954,139.412,285.954,132.732z"/>
	<path id="XMLID_18672_" style="fill:#455A64;" d="M250.523,119.786c0,0,3.687,2.343,4.1,11.535
		c0.623,13.868-9.011,21.178-9.011,21.178l-0.58,7.255c0,0,13.023-5.409,15.793-22.892c1.819-11.483-2.972-18.827-2.972-18.827
		C255.708,116.89,250.408,119.004,250.523,119.786z"/>
	<path id="XMLID_18674_" style="fill:#455A64;" d="M284.466,125.598c0,0-4.263-6.892-12.211-8.164c0,0,3.44-0.947,6.164,0.545
		C278.419,117.979,283.414,119.935,284.466,125.598z"/>
	<g id="XMLID_19149_">
		<g id="XMLID_19157_">
			<path id="XMLID_17715_" style="fill:#263238;" d="M251.609,94.584l2.841,11.218c0.609,2.403,2.771,4.086,5.25,4.086h3.325V94.24
				L251.609,94.584z"/>
			
				<ellipse id="XMLID_19163_" transform="matrix(0.2298 -0.9732 0.9732 0.2298 123.3345 336.7785)" style="fill:#263238;" cx="274.436" cy="90.469" rx="12.019" ry="12.019"/>
			<path id="XMLID_19162_" style="fill:#263238;" d="M255.869,83.639c0,0-2.125-0.364-3.781,1.329
				c-1.624,1.66-1.287,4.734,0.002,11.798l5.018,0.576L255.869,83.639z"/>
			<path id="XMLID_19161_" style="fill:#FFA8A7;" d="M258.224,97.345c-0.745,0.445-1.808-0.986-2.727-1.948
				c-0.919-0.961-3.919-2.275-5.415,0.878c-1.525,3.213,0.861,7.452,3.148,8.396c3.207,1.324,4.627-1.469,4.627-1.469l0.898,14.62
				c0,0,2.665,6.52,9.881,7.498c7.215,0.978,5.73-4.971,3.36-7.886l-0.011-4.468c0,0,3.697,0.616,5.486,0.282
				c2.635-0.492,3.928-2.937,5.17-6.064c1.852-4.666,2.989-11.268,1.389-19.639c-2.121-11.098-14.403-11.333-21.448-6.899
				C255.537,85.08,258.224,97.345,258.224,97.345z"/>
			<path id="XMLID_19160_" style="fill:#263238;" d="M258.224,98.599c-0.375,0.007-1.8-2.357-2.727-3.201
				c-1.285-1.169,0.373-11.759,0.373-11.759c0.654-8.678,13.454-9.338,16.991-9.591c8.109-0.582,13.626,3.907,11.424,9.559
				c-1.47,2.568-4.465,3.275-7.274,3.617c-4.768,0.58-12.892-1.98-13.908-2.118c-1.382-0.189-1.678,1.151-2.423,4.811
				C260.026,93.129,259.483,98.574,258.224,98.599z"/>
			<path id="XMLID_19159_" style="fill:#263238;" d="M255.877,84.462l-4.505-2.418c0.639-1.291,2.166-1.796,3.41-1.128
				C256.026,81.584,256.516,83.172,255.877,84.462z"/>
			<path id="XMLID_19158_" style="fill:#F28F8F;" d="M271.985,112.966c0,0-6.681-1.346-9.017-2.588
				c-1.564-0.831-2.851-2.271-3.229-3.194c0,0,0.437,1.982,1.834,3.768c1.708,2.184,10.411,3.792,10.411,3.792V112.966z"/>
		</g>
		<g id="XMLID_19150_">
			<path id="XMLID_19156_" style="fill:#263238;" d="M272.197,97.102c0,0.769-0.599,1.39-1.339,1.387
				c-0.74-0.002-1.339-0.626-1.339-1.395c0-0.768,0.599-1.389,1.339-1.387C271.598,95.71,272.197,96.334,272.197,97.102z"/>
			<path id="XMLID_19155_" style="fill:#263238;" d="M270.777,92.047l-2.864,1.581c-0.422-0.823-0.124-1.844,0.667-2.281
				C269.372,90.911,270.355,91.225,270.777,92.047z"/>
			<path id="XMLID_19154_" style="fill:#F28F8F;" d="M271.38,106.054l3.056,1.147c-0.302,0.876-1.231,1.33-2.076,1.013
				C271.517,107.897,271.077,106.93,271.38,106.054z"/>
			<path id="XMLID_19153_" style="fill:#263238;" d="M283.44,93.162l-2.612-2.012c0.533-0.748,1.549-0.904,2.27-0.348
				C283.82,91.358,283.973,92.414,283.44,93.162z"/>
			<path id="XMLID_19152_" style="fill:#263238;" d="M282.641,96.329c0,0.768-0.599,1.389-1.339,1.387
				c-0.739-0.002-1.339-0.626-1.339-1.394c0-0.769,0.6-1.39,1.339-1.387C282.042,94.936,282.641,95.561,282.641,96.329z"/>
			<polygon id="XMLID_19151_" style="fill:#F28F8F;" points="277.025,96.559 275.764,104.523 280.175,104.004 			"/>
		</g>
	</g>
	<g id="XMLID_18994_">
		<path id="XMLID_19202_" style="fill:#FFA8A7;" d="M244.109,149.733c0,0-6.217,14.822-9.385,24.799
			c-2.025,6.376-4.835,14.57-4.458,20.182c0.063,1.017,0.514,1.946,1.243,2.662c1.908,1.871,2.486,3.49,3.766,5.6
			c1.004,1.657,2.046,2.247,1.783,2.649c-0.351,0.502-1.481,1.205-2.976,0.364c-0.753-0.427-1.657-1.281-2.775-2.398
			c0,0,0.327,2.925,2.009,6.24c2.26,4.507-0.917,5.913-4.407,5.549c-4.005-0.427-6.096-3.665-7.139-12.981
			c-0.302-2.687-0.254-7.456,0.134-10.852c1.164-10.19,1.83-17.914,3.082-23.152c3.074-12.865,6.949-26.105,10.644-34.932
			c1.84-4.396,5.743-9.433,9.61-9.948C252.502,136.786,244.109,149.733,244.109,149.733z"/>
		<path id="XMLID_15771_" style="fill:#27DEBF;" d="M248.424,120.421c-4.615,1.522-8.834,3.856-11.227,8.353
			c-4.701,8.833-9.466,26.592-9.466,26.592c2.399,2.813,10.424,5.286,14.438,4.07l3.756-10.707l3.676-7.295
			C249.601,141.434,256.799,125.711,248.424,120.421z"/>
		<path id="XMLID_443_" style="opacity:0.1;" d="M248.424,120.421c-4.615,1.522-8.834,3.856-11.227,8.353
			c-4.701,8.833-9.466,26.592-9.466,26.592c2.399,2.813,10.424,5.286,14.438,4.07l3.756-10.707l3.676-7.295
			C249.601,141.434,256.799,125.711,248.424,120.421z"/>
		<path id="XMLID_19129_" style="fill:#B16668;" d="M231.307,203.59c-1.658-0.43-3.292-1.441-3.949,0.261
			c-0.656,1.702-0.098,5.112,1.39,6.661c1.488,1.55,5.641,2.666,6.633,1.798C236.374,211.443,234.283,204.362,231.307,203.59z"/>
	</g>
</g>
<g id="Locator">
	<g id="XMLID_18512_">
		<g id="XMLID_18515_">
			<g id="XMLID_18641_">
				<path id="XMLID_18642_" style="fill:#27DEBF;" d="M407.361,252.167l-14.838-8.522l-0.003,0.004
					c-7.082-4.739-16.915-4.537-27.79,1.741c-21.571,12.454-39.057,44.074-39.057,70.626v6.043
					c0,26.552,35.698,55.404,35.698,55.404l14.596,8.256c0,0-8.768-9.997-7.769-12.048c9.56-19.622,35.589-75.036,35.589-96.712
					v-6.043c0-4.845-0.588-9.18-1.671-12.964l1.673,0.966L407.361,252.167z M364.731,313.039
					c-10.785,6.227-19.528,1.179-19.529-11.275c5.806-0.913,20.404-25.832,19.528-33.824c10.785-6.227,19.529-1.179,19.529,11.275
					C384.259,291.669,375.516,306.813,364.731,313.039z"/>
			</g>
			<g id="XMLID_17186_" style="opacity:0.2;">
				<path id="XMLID_17199_" d="M407.361,252.167l-14.838-8.522l-0.003,0.004c-7.082-4.739-16.915-4.537-27.79,1.741
					c-21.571,12.454-39.057,44.074-39.057,70.626v6.043c0,26.552,35.698,55.404,35.698,55.404l14.596,8.256
					c0,0-8.768-9.997-7.769-12.048c9.56-19.622,35.589-75.036,35.589-96.712v-6.043c0-4.845-0.588-9.18-1.671-12.964l1.673,0.966
					L407.361,252.167z M364.731,313.039c-10.785,6.227-19.528,1.179-19.529-11.275c5.806-0.913,20.404-25.832,19.528-33.824
					c10.785-6.227,19.529-1.179,19.529,11.275C384.259,291.669,375.516,306.813,364.731,313.039z"/>
			</g>
			<g id="XMLID_18516_">
				<path id="XMLID_17185_" style="fill:#27DEBF;" d="M419.41,279.937c-0.001-26.552-17.487-37.98-39.057-25.526
					c-21.571,12.454-39.057,44.074-39.057,70.626v6.043c0,20.446,23.161,44.169,33.812,53.999c2.597,2.397,6.753,1.629,8.304-1.547
					c9.201-18.83,35.999-75.558,35.999-97.551V279.937z M380.353,322.06c-10.785,6.227-19.529,1.179-19.529-11.275
					c0-12.454,8.743-27.598,19.528-33.824c10.785-6.227,19.529-1.179,19.529,11.275C399.882,300.689,391.139,315.833,380.353,322.06
					z"/>
			</g>
		</g>
	</g>
</g>
<g id="Planes">
	<g id="XMLID_17371_">
		<g id="XMLID_17198_">
			<g>
				<path style="fill:#E0E0E0;" d="M80.492,129.23c-0.214,0-0.426-0.091-0.574-0.267c-0.267-0.317-0.226-0.79,0.091-1.057
					c0.783-0.659,1.586-1.296,2.383-1.891c0.333-0.246,0.802-0.179,1.05,0.152c0.248,0.332,0.18,0.802-0.152,1.05
					c-0.775,0.579-1.554,1.196-2.315,1.836C80.834,129.172,80.662,129.23,80.492,129.23z"/>
			</g>
			<g>
				<path style="fill:#E0E0E0;" d="M111.025,214.822c-0.991,0-2.001-0.023-3.002-0.07c-0.414-0.019-0.734-0.37-0.714-0.784
					c0.019-0.414,0.379-0.734,0.784-0.714c2.047,0.095,4.106,0.091,6.083-0.014c0.415-0.017,0.767,0.296,0.789,0.71
					c0.022,0.414-0.296,0.767-0.71,0.789C113.195,214.794,112.109,214.822,111.025,214.822z M102.945,214.317
					c-0.031,0-0.062-0.002-0.093-0.006c-2.058-0.255-4.123-0.607-6.138-1.046c-0.404-0.088-0.661-0.488-0.573-0.893
					c0.089-0.404,0.485-0.659,0.893-0.573c1.97,0.43,3.989,0.774,6.002,1.024c0.411,0.051,0.703,0.425,0.652,0.836
					C103.642,214.039,103.318,214.317,102.945,214.317z M119.319,214.232c-0.365,0-0.686-0.267-0.741-0.64
					c-0.061-0.41,0.222-0.791,0.631-0.852c2.101-0.314,4.087-0.751,5.902-1.302c0.398-0.119,0.815,0.104,0.936,0.5
					c0.12,0.396-0.104,0.815-0.5,0.935c-1.885,0.572-3.943,1.026-6.117,1.35C119.394,214.23,119.356,214.232,119.319,214.232z
					 M91.915,211.969c-0.076,0-0.153-0.012-0.23-0.036c-2.001-0.645-3.955-1.43-5.806-2.334c-0.372-0.182-0.526-0.631-0.345-1.003
					c0.181-0.372,0.63-0.527,1.003-0.345c1.787,0.872,3.674,1.631,5.608,2.254c0.395,0.127,0.611,0.55,0.484,0.944
					C92.526,211.767,92.232,211.969,91.915,211.969z M81.748,207.144c-0.141,0-0.283-0.039-0.409-0.122
					c-1.744-1.137-3.417-2.419-4.973-3.808c-0.309-0.276-0.336-0.75-0.06-1.059c0.275-0.309,0.75-0.336,1.059-0.06
					c1.5,1.339,3.113,2.575,4.793,3.671c0.347,0.226,0.445,0.691,0.218,1.038C82.232,207.024,81.992,207.144,81.748,207.144z
					 M73.257,199.76c-0.209,0-0.417-0.087-0.565-0.256c-1.358-1.552-2.628-3.231-3.774-4.99c-0.226-0.347-0.128-0.811,0.219-1.038
					c0.345-0.226,0.812-0.128,1.038,0.219c1.107,1.7,2.335,3.322,3.646,4.821c0.273,0.312,0.241,0.785-0.071,1.058
					C73.608,199.699,73.433,199.76,73.257,199.76z M66.995,190.407c-0.274,0-0.539-0.151-0.67-0.413
					c-0.924-1.839-1.747-3.774-2.444-5.752c-0.138-0.391,0.067-0.819,0.458-0.957c0.393-0.137,0.819,0.068,0.957,0.458
					c0.676,1.918,1.474,3.795,2.369,5.577c0.186,0.37,0.037,0.821-0.333,1.007C67.224,190.381,67.108,190.407,66.995,190.407z
					 M63.13,179.824c-0.338,0-0.645-0.23-0.729-0.573c-0.488-2.008-0.862-4.076-1.113-6.145c-0.05-0.411,0.243-0.785,0.654-0.835
					c0.414-0.048,0.785,0.243,0.835,0.654c0.244,2.011,0.608,4.02,1.082,5.971c0.098,0.403-0.149,0.808-0.552,0.906
					C63.248,179.817,63.188,179.824,63.13,179.824z M61.663,168.648c-0.407,0-0.741-0.326-0.75-0.735
					c-0.006-0.328-0.01-0.655-0.01-0.98c0-1.759,0.1-3.53,0.296-5.265c0.046-0.412,0.422-0.711,0.829-0.661
					c0.412,0.046,0.708,0.417,0.661,0.829c-0.189,1.68-0.286,3.395-0.286,5.097c0,0.316,0.003,0.633,0.01,0.951
					c0.008,0.414-0.321,0.756-0.735,0.765C61.673,168.648,61.668,168.648,61.663,168.648z M62.805,157.444
					c-0.055,0-0.111-0.006-0.167-0.019c-0.404-0.092-0.657-0.494-0.565-0.898c0.458-2.011,1.06-4.027,1.788-5.992
					c0.144-0.389,0.576-0.586,0.964-0.442c0.388,0.144,0.586,0.575,0.442,0.964c-0.706,1.903-1.288,3.856-1.731,5.803
					C63.456,157.208,63.147,157.444,62.805,157.444z M66.597,146.837c-0.112,0-0.225-0.025-0.332-0.078
					c-0.371-0.184-0.523-0.633-0.34-1.005c0.911-1.842,1.952-3.666,3.096-5.423c0.226-0.347,0.69-0.445,1.038-0.219
					c0.347,0.226,0.445,0.69,0.219,1.038c-1.111,1.708-2.123,3.48-3.008,5.27C67.139,146.684,66.873,146.837,66.597,146.837z
					 M72.646,137.325c-0.163,0-0.328-0.053-0.465-0.162c-0.325-0.257-0.379-0.729-0.122-1.054c1.285-1.622,2.676-3.194,4.134-4.673
					c0.291-0.295,0.766-0.298,1.061-0.007c0.295,0.291,0.298,0.766,0.008,1.061c-1.42,1.441-2.775,2.971-4.026,4.551
					C73.086,137.228,72.867,137.325,72.646,137.325z"/>
			</g>
			<g>
				<path style="fill:#E0E0E0;" d="M130.15,210.993c-0.273,0-0.535-0.149-0.668-0.408c-0.189-0.369-0.043-0.821,0.325-1.01
					c0.897-0.46,1.728-0.963,2.468-1.493c0.337-0.241,0.806-0.163,1.046,0.172c0.242,0.337,0.164,0.805-0.172,1.046
					c-0.8,0.574-1.694,1.115-2.658,1.609C130.383,210.966,130.266,210.993,130.15,210.993z"/>
			</g>
		</g>
		<g id="XMLID_16849_">
			<path id="XMLID_17188_" style="fill:#27DEBF;" d="M111.932,105.492L87.856,94.121l1.06-0.559l22.939,4.564l2.299-1.213
				c0.425-0.224,1.104-0.195,1.518,0.065c0.413,0.26,0.403,0.653-0.021,0.877l-1.412,0.745l7.91,1.651L111.932,105.492z"/>
			<path id="XMLID_16863_" style="opacity:0.1;" d="M111.932,105.492L87.856,94.121l1.06-0.559l22.939,4.564l2.299-1.213
				c0.425-0.224,1.104-0.195,1.518,0.065c0.413,0.26,0.403,0.653-0.021,0.877l-1.412,0.745l7.91,1.651L111.932,105.492z"/>
			<path id="XMLID_17373_" style="fill:#27DEBF;" d="M118.666,99.481c10.849-5.69,19.629-8.916,22.277-7.249
				c2.648,1.668-3.705,6.423-14.498,12.148l-9.555,4.622c-9.569,4.299-19.402,8.001-19.402,8.001l0.446,6.617l-0.954,0.503
				l-4.297-4.768c0,0-2.401,1.147-3.74,0.303c-1.339-0.844,0.855-2.12,0.855-2.12l-7.86-2.889l0.954-0.503l11.396,0.841
				c0,0,7.268-5.318,15.545-10.431L118.666,99.481z"/>
			<g id="XMLID_16857_">
				<path id="XMLID_17370_" style="fill:#27DEBF;" d="M130.484,107.198l-2.3,1.213l5.858,13.573l-1.06,0.559l-16.093-13.54
					l9.555-4.622l1.131,2.62l1.412-0.745c0.425-0.224,1.104-0.195,1.517,0.065C130.918,106.581,130.909,106.974,130.484,107.198z"/>
				<path id="XMLID_17355_" style="opacity:0.1;" d="M130.484,107.198l-2.3,1.213l5.858,13.573l-1.06,0.559L114.8,107.277
					l10.544-5.372l2.231,5.096l1.412-0.745c0.425-0.224,1.104-0.195,1.517,0.065C130.918,106.581,130.909,106.974,130.484,107.198z"
					/>
			</g>
		</g>
	</g>
	<g id="XMLID_17170_">
		<g id="XMLID_17193_">
			<path id="XMLID_16693_" style="fill:#27DEBF;" d="M369.376,181.49c-10.536,6.249-19.136,9.929-21.867,8.402
				c-2.732-1.527,3.364-6.608,13.844-12.889l9.3-5.115c9.331-4.793,18.958-9.004,18.958-9.004l-0.791-6.585l0.926-0.552l4.54,4.537
				c0,0,2.337-1.271,3.719-0.498c1.382,0.773-0.743,2.162-0.743,2.162l8,2.474l-0.926,0.552l-11.424-0.245
				c0,0-6.98,5.69-14.978,11.229L369.376,181.49z"/>
			<g id="XMLID_16695_">
				<path id="XMLID_16812_" style="fill:#27DEBF;" d="M357.172,174.402l2.233-1.331l-6.559-13.249l1.029-0.614l16.778,12.681
					l-9.3,5.115l-1.266-2.557l-1.371,0.818c-0.413,0.246-1.093,0.252-1.519,0.014C356.77,175.04,356.759,174.648,357.172,174.402z"
					/>
				<path id="XMLID_16684_" style="opacity:0.1;" d="M357.172,174.402l2.233-1.331l-6.559-13.249l1.029-0.614l16.778,12.681
					l-9.3,5.115l-1.266-2.557l-1.371,0.818c-0.413,0.246-1.093,0.252-1.519,0.014C356.77,175.04,356.759,174.648,357.172,174.402z"
					/>
				<path id="XMLID_16848_" style="fill:#27DEBF;" d="M375.788,175.136l24.637,10.097l-1.03,0.614l-23.146-3.36l-2.233,1.331
					c-0.413,0.246-1.093,0.252-1.519,0.014c-0.426-0.238-0.437-0.631-0.025-0.877l1.371-0.817l-7.986-1.235L375.788,175.136z"/>
				<path id="XMLID_16846_" style="opacity:0.1;" d="M375.788,175.136l24.637,10.097l-1.03,0.614l-23.146-3.36l-2.233,1.331
					c-0.413,0.246-1.093,0.252-1.519,0.014c-0.426-0.238-0.437-0.631-0.025-0.877l1.371-0.817l-7.986-1.235L375.788,175.136z"/>
			</g>
		</g>
		<g id="XMLID_17187_">
			<g id="XMLID_17192_">
				<path style="fill:#E0E0E0;" d="M403.612,153.171c-0.178,0-0.355-0.063-0.499-0.19c-0.309-0.275-0.337-0.75-0.062-1.059
					c1.303-1.462,2.463-3.049,3.45-4.717c0.212-0.357,0.67-0.475,1.027-0.264c0.356,0.211,0.475,0.671,0.264,1.027
					c-1.036,1.751-2.255,3.417-3.62,4.95C404.024,153.086,403.818,153.171,403.612,153.171z M409.334,143.848
					c-0.091,0-0.183-0.016-0.273-0.051c-0.386-0.15-0.577-0.586-0.426-0.971c0.705-1.808,1.239-3.701,1.588-5.626
					c0.074-0.408,0.473-0.677,0.872-0.604c0.407,0.074,0.678,0.464,0.604,0.872c-0.366,2.02-0.927,4.006-1.668,5.904
					C409.917,143.667,409.634,143.848,409.334,143.848z M411.466,133.114c-0.006,0-0.013,0-0.02-0.001
					c-0.414-0.01-0.741-0.355-0.73-0.769c0.007-0.257,0.01-0.514,0.01-0.772c0.001-1.677-0.132-3.384-0.394-5.074
					c-0.063-0.409,0.217-0.792,0.626-0.856c0.416-0.063,0.793,0.217,0.857,0.626c0.273,1.766,0.412,3.55,0.411,5.304
					c0,0.27-0.003,0.54-0.01,0.811C412.205,132.79,411.871,133.114,411.466,133.114z M409.961,122.265
					c-0.322,0-0.619-0.208-0.718-0.532c-0.561-1.851-1.283-3.691-2.146-5.469c-0.181-0.373-0.025-0.821,0.348-1.003
					c0.373-0.181,0.82-0.025,1.002,0.347c0.898,1.85,1.648,3.764,2.232,5.689c0.12,0.396-0.104,0.815-0.5,0.936
					C410.106,122.254,410.032,122.265,409.961,122.265z M405.317,112.334c-0.246,0-0.487-0.121-0.631-0.342
					c-1.051-1.623-2.24-3.21-3.534-4.715c-0.271-0.314-0.234-0.788,0.079-1.058c0.313-0.269,0.786-0.235,1.058,0.08
					c1.339,1.556,2.569,3.197,3.657,4.878c0.225,0.348,0.125,0.812-0.223,1.037C405.598,112.295,405.457,112.334,405.317,112.334z
					 M398.269,103.926c-0.185,0-0.37-0.068-0.515-0.205c-1.402-1.324-2.925-2.603-4.526-3.8c-0.332-0.248-0.399-0.718-0.151-1.05
					c0.248-0.332,0.717-0.4,1.05-0.151c1.647,1.232,3.214,2.548,4.657,3.911c0.302,0.285,0.315,0.759,0.03,1.061
					C398.666,103.848,398.468,103.926,398.269,103.926z M389.546,97.256c-0.135,0-0.271-0.036-0.395-0.113
					c-0.688-0.427-1.393-0.845-2.114-1.254c-1.003-0.567-2.033-1.122-3.064-1.65c-0.369-0.189-0.515-0.641-0.326-1.009
					c0.188-0.368,0.64-0.515,1.01-0.326c1.049,0.537,2.098,1.102,3.118,1.68c0.739,0.419,1.462,0.847,2.167,1.285
					c0.352,0.218,0.46,0.681,0.242,1.033C390.042,97.131,389.797,97.256,389.546,97.256z M299.897,96.748
					c-0.26,0-0.512-0.134-0.65-0.375c-0.207-0.359-0.084-0.817,0.274-1.024c1.738-1.004,3.536-1.959,5.342-2.841
					c0.374-0.184,0.821-0.027,1.003,0.345c0.182,0.373,0.027,0.821-0.345,1.003c-1.775,0.867-3.541,1.806-5.25,2.792
					C300.152,96.716,300.023,96.748,299.897,96.748z M379.802,92.176c-0.102,0-0.203-0.02-0.302-0.063
					c-1.807-0.794-3.665-1.534-5.523-2.199c-0.39-0.14-0.593-0.569-0.453-0.959c0.139-0.39,0.565-0.593,0.959-0.453
					c1.891,0.677,3.782,1.43,5.621,2.238c0.379,0.167,0.552,0.609,0.385,0.988C380.365,92.009,380.09,92.176,379.802,92.176z
					 M309.745,91.867c-0.293,0-0.571-0.173-0.691-0.46c-0.16-0.382,0.02-0.821,0.401-0.981c1.848-0.775,3.75-1.499,5.654-2.15
					c0.396-0.138,0.818,0.075,0.953,0.467c0.134,0.392-0.075,0.818-0.467,0.952c-1.873,0.641-3.744,1.353-5.561,2.114
					C309.94,91.849,309.842,91.867,309.745,91.867z M369.478,88.412c-0.069,0-0.141-0.01-0.211-0.03
					c-1.889-0.555-3.827-1.051-5.762-1.475c-0.404-0.089-0.66-0.489-0.571-0.893c0.09-0.405,0.489-0.66,0.893-0.572
					c1.968,0.432,3.94,0.937,5.861,1.501c0.397,0.117,0.625,0.534,0.509,0.931C370.102,88.2,369.802,88.412,369.478,88.412z
					 M320.125,88.249c-0.328,0-0.629-0.216-0.722-0.547c-0.112-0.398,0.12-0.813,0.519-0.925c1.93-0.542,3.905-1.027,5.875-1.442
					c0.397-0.086,0.803,0.173,0.888,0.579c0.086,0.405-0.174,0.803-0.579,0.889c-1.937,0.408-3.88,0.886-5.777,1.419
					C320.26,88.24,320.191,88.249,320.125,88.249z M358.756,85.992c-0.039,0-0.079-0.003-0.12-0.009
					c-1.948-0.313-3.934-0.563-5.901-0.743c-0.412-0.038-0.716-0.403-0.679-0.815c0.038-0.413,0.404-0.713,0.815-0.679
					c2.001,0.184,4.021,0.438,6.003,0.755c0.408,0.066,0.686,0.451,0.621,0.859C359.436,85.729,359.117,85.992,358.756,85.992z
					 M330.868,85.924c-0.364,0-0.684-0.265-0.74-0.636c-0.063-0.41,0.218-0.793,0.627-0.855c1.988-0.306,4.009-0.548,6.007-0.721
					c0.413-0.032,0.776,0.271,0.812,0.683c0.036,0.413-0.27,0.776-0.683,0.812c-1.965,0.17-3.952,0.408-5.907,0.709
					C330.944,85.921,330.906,85.924,330.868,85.924z M347.814,84.926c-0.009,0-0.018,0-0.026-0.001
					c-1.983-0.07-3.968-0.074-5.948-0.012c-0.42,0.026-0.761-0.313-0.773-0.726c-0.013-0.414,0.313-0.76,0.727-0.773
					c2.014-0.063,4.03-0.06,6.048,0.012c0.414,0.015,0.738,0.362,0.724,0.776C348.549,84.608,348.216,84.926,347.814,84.926z"/>
			</g>
		</g>
	</g>
</g>
</svg>
